<svg id="Layer_1" data-name="Layer 1" xmlns="http://www.w3.org/2000/svg" width="192" height="192" viewBox="0 0 192 192"><title>bubble</title><rect x="54.2" y="101" width="85.3" height="8.11"/><polygon points="73.2 112.2 62.9 112.2 49.2 128.4 51.4 131.6 77.7 117.7 73.2 112.2"/><path d="M128.8,97.9A39.4,39.4,0,0,0,130.6,86a33.8,33.8,0,0,0-67.5,0c0,4.1.3,8.3,1.8,11.9Z"/><polygon points="65.1 128 86.3 128 79.9 120.2 65.1 128"/><path d="M96,1,13.7,48.5v95L96,191l82.3-47.5v-95Zm49.9,128.4-3.6,5.1a1.5,1.5,0,0,1-2,.5l-7.5-3.9H59L51.5,135a1.6,1.6,0,0,1-2-.5l-3.6-5.1a1.7,1.7,0,0,1,.2-1.9L59,112.2H52.6a1.4,1.4,0,0,1-1.5-1.5V99.4a1.4,1.4,0,0,1,1.5-1.5h9.1A43.9,43.9,0,0,1,60,86a36.9,36.9,0,0,1,73.8,0A37.4,37.4,0,0,1,132,97.9h9.1a1.4,1.4,0,0,1,1.5,1.5v11.3a1.4,1.4,0,0,1-1.5,1.5h-8l12.8,15.3A1.7,1.7,0,0,1,145.9,129.4Z"/><polygon points="118.8 112.2 114.1 117.7 140.6 131.6 142.8 128.6 129.1 112.2 118.8 112.2"/><polygon points="77.3 112.2 90.4 128 101.6 128 114.7 112.2 77.3 112.2"/><polygon points="105.7 128 126.9 128 112.1 120.2 105.7 128"/></svg>