<svg id="Layer_1" data-name="Layer 1" xmlns="http://www.w3.org/2000/svg" width="192" height="192" viewBox="0 0 192 192"><title>dome</title><polygon points="94.4 95.8 94.4 64.3 72 95.8 94.4 95.8"/><rect x="52.5" y="110.7" width="42" height="17.32"/><path d="M97.6,61V95.8h43A46.4,46.4,0,0,0,97.6,61Z"/><rect x="97.6" y="110.7" width="7" height="17.32"/><path d="M92.9,61.2A46.3,46.3,0,0,0,51.4,95.8H68.1Z"/><rect x="107.7" y="110.7" width="31.8" height="17.32"/><rect x="43.6" y="99" width="104.8" height="8.58"/><rect x="52.5" y="110.7" width="42" height="17.32" fill="none"/><rect x="97.6" y="110.7" width="7" height="17.32" fill="none"/><polygon points="94.4 95.8 94.4 64.3 72 95.8 94.4 95.8" fill="none"/><path d="M92.9,61.2A46.3,46.3,0,0,0,51.4,95.8H68.1Z" fill="none"/><rect x="107.7" y="110.7" width="31.8" height="17.32" fill="none"/><path d="M97.6,61V95.8h43A46.4,46.4,0,0,0,97.6,61Z" fill="none"/><rect x="43.6" y="99" width="104.8" height="8.58" fill="none"/><path d="M96,1,13.7,48.5v95L96,191l82.3-47.5v-95Zm67.2,109.7H142.6v18.8a1.4,1.4,0,0,1-1.5,1.6H50.9a1.5,1.5,0,0,1-1.6-1.6V110.7H28.8a1.6,1.6,0,0,1,0-3.2H40.5V97.4A1.5,1.5,0,0,1,42,95.8h6.1A49.5,49.5,0,0,1,95.8,57.9a.8.8,0,0,1,.7,0,49.4,49.4,0,0,1,47.4,37.9H150a1.5,1.5,0,0,1,1.5,1.6v10.1h11.7a1.6,1.6,0,1,1,0,3.2Z"/></svg>