<svg id="Layer_1" data-name="Layer 1" xmlns="http://www.w3.org/2000/svg" width="192" height="192" viewBox="0 0 192 192"><title>mecha</title><rect x="91" y="118.2" width="10" height="9.83"/><rect x="72.3" y="118.2" width="15.6" height="9.83"/><rect x="59.2" y="118.2" width="10" height="9.83"/><rect x="104.1" y="118.2" width="15.6" height="9.83"/><path d="M96,53.1c-18.3,0-33.5,11.1-34.3,31.2h68.6C129.5,64.2,114.3,53.1,96,53.1Z"/><path d="M49.8,115h92.4V87.4H49.8Zm45.4-10.6h38.1a1.6,1.6,0,0,1,1.5,1.6,1.5,1.5,0,0,1-1.5,1.5H95.2a1.5,1.5,0,0,1-1.5-1.5A1.6,1.6,0,0,1,95.2,104.4Z"/><path d="M96,1,13.7,48.5v95L96,191l82.3-47.5v-95Zm49.3,115.6a1.5,1.5,0,0,1-1.6,1.6h-7.8V128h7.8a1.6,1.6,0,1,1,0,3.1H48.3a1.6,1.6,0,1,1,0-3.1h7.8v-9.8H48.3a1.5,1.5,0,0,1-1.6-1.6V85.9a1.5,1.5,0,0,1,1.6-1.6H58.6C59.3,62.1,75.9,50,96,50s36.7,12.1,37.4,34.3h10.3a1.5,1.5,0,0,1,1.6,1.6Z"/><rect x="122.8" y="118.2" width="10" height="9.83"/></svg>