<svg xmlns="http://www.w3.org/2000/svg"><symbol id="bubble" viewBox="0 0 192 192"><path d="M54.2 101h85.3v8.11H54.2zm19 11.2H62.9l-13.7 16.2 2.2 3.2 26.3-13.9-4.5-5.5zm55.6-14.3a39.4 39.4 0 0 0 1.8-11.9 33.8 33.8 0 0 0-67.5 0c0 4.1.3 8.3 1.8 11.9zM65.1 128h21.2l-6.4-7.8-14.8 7.8z"/><path d="M96 1L13.7 48.5v95L96 191l82.3-47.5v-95zm49.9 128.4l-3.6 5.1a1.5 1.5 0 0 1-2 .5l-7.5-3.9H59l-7.5 3.9a1.6 1.6 0 0 1-2-.5l-3.6-5.1a1.7 1.7 0 0 1 .2-1.9L59 112.2h-6.4a1.4 1.4 0 0 1-1.5-1.5V99.4a1.4 1.4 0 0 1 1.5-1.5h9.1A43.9 43.9 0 0 1 60 86a36.9 36.9 0 0 1 73.8 0 37.4 37.4 0 0 1-1.8 11.9h9.1a1.4 1.4 0 0 1 1.5 1.5v11.3a1.4 1.4 0 0 1-1.5 1.5h-8l12.8 15.3a1.7 1.7 0 0 1 0 1.9z"/><path d="M118.8 112.2l-4.7 5.5 26.5 13.9 2.2-3-13.7-16.4h-10.3zm-41.5 0L90.4 128h11.2l13.1-15.8H77.3zm28.4 15.8h21.2l-14.8-7.8-6.4 7.8z"/></symbol><symbol id="dome" viewBox="0 0 192 192"><path d="M94.4 95.8V64.3L72 95.8h22.4zm-41.9 14.9h42v17.32h-42zM97.6 61v34.8h43a46.4 46.4 0 0 0-43-34.8zm0 49.7h7v17.32h-7zm-4.7-49.5a46.3 46.3 0 0 0-41.5 34.6h16.7zm14.8 49.5h31.8v17.32h-31.8zM43.6 99h104.8v8.58H43.6z"/><path fill="none" d="M52.5 110.7h42v17.32h-42zm45.1 0h7v17.32h-7zm-3.2-14.9V64.3L72 95.8h22.4zm-1.5-34.6a46.3 46.3 0 0 0-41.5 34.6h16.7zm14.8 49.5h31.8v17.32h-31.8zM97.6 61v34.8h43a46.4 46.4 0 0 0-43-34.8zm-54 38h104.8v8.58H43.6z"/><path d="M96 1L13.7 48.5v95L96 191l82.3-47.5v-95zm67.2 109.7h-20.6v18.8a1.4 1.4 0 0 1-1.5 1.6H50.9a1.5 1.5 0 0 1-1.6-1.6v-18.8H28.8a1.6 1.6 0 0 1 0-3.2h11.7V97.4a1.5 1.5 0 0 1 1.5-1.6h6.1a49.5 49.5 0 0 1 47.7-37.9.8.8 0 0 1 .7 0 49.4 49.4 0 0 1 47.4 37.9h6.1a1.5 1.5 0 0 1 1.5 1.6v10.1h11.7a1.6 1.6 0 1 1 0 3.2z"/></symbol><symbol id="mecha" viewBox="0 0 192 192"><path d="M91 118.2h10v9.83H91zm-18.7 0h15.6v9.83H72.3zm-13.1 0h10v9.83h-10zm44.9 0h15.6v9.83h-15.6zM96 53.1c-18.3 0-33.5 11.1-34.3 31.2h68.6c-.8-20.1-16-31.2-34.3-31.2zM49.8 115h92.4V87.4H49.8zm45.4-10.6h38.1a1.6 1.6 0 0 1 1.5 1.6 1.5 1.5 0 0 1-1.5 1.5H95.2a1.5 1.5 0 0 1-1.5-1.5 1.6 1.6 0 0 1 1.5-1.6z"/><path d="M96 1L13.7 48.5v95L96 191l82.3-47.5v-95zm49.3 115.6a1.5 1.5 0 0 1-1.6 1.6h-7.8v9.8h7.8a1.6 1.6 0 1 1 0 3.1H48.3a1.6 1.6 0 1 1 0-3.1h7.8v-9.8h-7.8a1.5 1.5 0 0 1-1.6-1.6V85.9a1.5 1.5 0 0 1 1.6-1.6h10.3C59.3 62.1 75.9 50 96 50s36.7 12.1 37.4 34.3h10.3a1.5 1.5 0 0 1 1.6 1.6z"/><path d="M122.8 118.2h10v9.83h-10z"/></symbol></svg>